<svg xmlns="http://www.w3.org/2000/svg" width="318.91116mm" height="318.90491mm" viewBox="0 0 318.91116 318.90491"><g style="stroke-width:.591524"><g style="stroke-width:.0564359"><path d="M0 0c-13.396 0-24.293-10.898-24.293-24.293S-13.396-48.588 0-48.588c13.397 0 24.295 10.9 24.295 24.295S13.397 0 0 0" style="fill:#fff;fill-opacity:1;fill-rule:nonzero;stroke:none;stroke-width:.0564359" transform="matrix(6.25095 0 0 -6.25095 159.448 7.595)"/></g><g style="fill:#252f81;stroke-width:.0564359"><path d="M0 0c0-14.064 11.442-25.509 25.508-25.509S51.018-14.064 51.018 0s-11.444 25.508-25.51 25.508S0 14.064 0 0m1.697 0c0 13.13 10.682 23.81 23.811 23.81C38.639 23.81 49.32 13.13 49.32 0S38.639-23.812 25.508-23.812C12.379-23.812 1.697-13.13 1.697 0" style="fill:#252f81;fill-opacity:1;fill-rule:nonzero;stroke:none;stroke-width:.0564359" transform="matrix(6.25095 0 0 -6.25095 0 159.45)"/></g><g style="fill:#252f81;stroke-width:.0564359"><path d="M0 0c-12.507 0-22.642-10.138-22.642-22.643 0-12.503 10.135-22.639 22.642-22.639s22.643 10.136 22.643 22.639C22.643-10.138 12.507 0 0 0m0-39.827c-9.492 0-17.186 7.694-17.186 17.184 0 9.492 7.694 17.187 17.186 17.187 9.491 0 17.186-7.695 17.186-17.187 0-9.49-7.695-17.184-17.186-17.184" style="fill:#252f81;fill-opacity:1;fill-rule:nonzero;stroke:none;stroke-width:.0564359" transform="matrix(6.25095 0 0 -6.25095 159.448 17.923)"/></g><g style="stroke-width:.0564359"><path d="M0 0a.528.528 0 1 0-1.056.002A.528.528 0 0 0 0 0" style="fill:#fff;fill-opacity:1;fill-rule:nonzero;stroke:none;stroke-width:.0564359" transform="matrix(6.25095 0 0 -6.25095 46.137 200.617)"/></g><g style="stroke-width:.0564359"><path d="M0 0a.528.528 0 1 0-1.055.001A.528.528 0 0 0 0 0" style="fill:#fff;fill-opacity:1;fill-rule:nonzero;stroke:none;stroke-width:.0564359" transform="matrix(6.25095 0 0 -6.25095 280.61 200.617)"/></g><g style="stroke-width:.0564359"><path d="m0 0-.697.112q.006-.003.082-.087a.21.21 0 0 0 .061-.18l-.171-1.047-.823.132-.047-.292 2.813-.454.048.292-1.476.238z" style="fill:#fff;fill-opacity:1;fill-rule:nonzero;stroke:none;stroke-width:.0564359" transform="matrix(6.25095 0 0 -6.25095 137.49 280.06)"/></g><g style="stroke-width:.0564359"><path d="M0 0a7 7 0 0 0-.115-.579A.95.95 0 0 0-.3-.955l.46-.074q.117.136.206.362.091.226.143.547l.19 1.185-2.26.369-.045-.293L.139.857z" style="fill:#fff;fill-opacity:1;fill-rule:nonzero;stroke:none;stroke-width:.0564359" transform="matrix(6.25095 0 0 -6.25095 141.428 281.251)"/></g><g style="stroke-width:.0564359"><path d="m0 0 .087-.478a.32.32 0 0 1 .142-.227.36.36 0 0 1 .276-.045l1.872.346-.055.29L.608-.431.515.076l1.68.31-.053.291L-.229.239q.008-.001.108-.068A.27.27 0 0 0 0 0" style="fill:#fff;fill-opacity:1;fill-rule:nonzero;stroke:none;stroke-width:.0564359" transform="matrix(6.25095 0 0 -6.25095 173.506 275.116)"/></g><g style="stroke-width:.0564359"><path d="M0 0a.9.9 0 0 1-.624.091.92.92 0 0 1-.554-.308.623.623 0 0 1 .18-.98.93.93 0 0 1 .628-.094q.345.064.551.311A.63.63 0 0 1 0 0m-.223-.836Q-.295-.975-.423-1q-.13-.023-.248.082a.46.46 0 0 0-.145.264.46.46 0 0 0 .043.295q.071.141.201.167.13.023.247-.085a.44.44 0 0 0 .143-.261.45.45 0 0 0-.041-.298" style="fill:#fff;fill-opacity:1;fill-rule:nonzero;stroke:none;stroke-width:.0564359" transform="matrix(6.25095 0 0 -6.25095 185.966 284.047)"/></g><g style="stroke-width:.0564359"><path d="m0 0 2.906.533-.053.291L-.053.29Z" style="fill:#fff;fill-opacity:1;fill-rule:nonzero;stroke:none;stroke-width:.0564359" transform="matrix(6.25095 0 0 -6.25095 172.768 284.04)"/></g><g style="stroke-width:.0564359"><path d="M0 0q.002-.007.003-.118a.21.21 0 0 0-.079-.175L-.43-.579l-.567.703-.224-.181.568-.704-.581-.468.326-.405L.44-.548z" style="fill:#fff;fill-opacity:1;fill-rule:nonzero;stroke:none;stroke-width:.0564359" transform="matrix(6.25095 0 0 -6.25095 73.357 235.816)"/></g><g style="stroke-width:.0564359"><path d="M0 0a.33.33 0 0 1-.133-.232.36.36 0 0 1 .092-.261l.893-1.106.23.186-.789.979.805.652.671-.831.229.185L.885.951Q.886.942.883.825a.25.25 0 0 0-.1-.192Z" style="fill:#fff;fill-opacity:1;fill-rule:nonzero;stroke:none;stroke-width:.0564359" transform="matrix(6.25095 0 0 -6.25095 59.402 232.007)"/></g><g style="stroke-width:.0564359"><path d="m0 0 1.133-1.405-.707-.572.326-.406.938.758L.228.186Z" style="fill:#fff;fill-opacity:1;fill-rule:nonzero;stroke:none;stroke-width:.0564359" transform="matrix(6.25095 0 0 -6.25095 55.862 236.884)"/></g><g style="stroke-width:.0564359"><path d="M0 0q.389-.042.596.104-.013-.25.228-.563a1.7 1.7 0 0 1 .519-.466l.324.076q-.344.196-.542.601-.199.402-.029.707l.175.311-.622.348.047-.111A.21.21 0 0 0 .69.816l-.055-.1Q.464.411.019.368A1.36 1.36 0 0 0-.777.52L-.672.2A1.75 1.75 0 0 1 0 0" style="fill:#fff;fill-opacity:1;fill-rule:nonzero;stroke:none;stroke-width:.0564359" transform="matrix(6.25095 0 0 -6.25095 94.973 264.14)"/></g><g style="stroke-width:.0564359"><path d="m0 0 1.077-.603-.541-.968.455-.254.541.97 1.077-.605.145.258L.145.257Z" style="fill:#fff;fill-opacity:1;fill-rule:nonzero;stroke:none;stroke-width:.0564359" transform="matrix(6.25095 0 0 -6.25095 87 265.251)"/></g><g style="stroke-width:.0564359"><path d="M0 0q.277-.228.442-.393A.9.9 0 0 0 .673-.74l.293.353q-.06.172-.209.362-.15.192-.401.396l-.925.767-1.469-1.777.228-.186L-.67.555z" style="fill:#fff;fill-opacity:1;fill-rule:nonzero;stroke:none;stroke-width:.0564359" transform="matrix(6.25095 0 0 -6.25095 258.169 234.088)"/></g><g style="stroke-width:.0564359"><path d="m0 0-.37-.448a.4.4 0 0 0 .096 0 .26.26 0 0 0 .165-.069l.803-.662-.167-.201-.99.818-.37-.447a1 1 0 0 0 .095 0 .3.3 0 0 0 .166-.065l.802-.665-.339-.411.228-.189L1.934-.142l-.229.188-.714-.864Z" style="fill:#fff;fill-opacity:1;fill-rule:nonzero;stroke:none;stroke-width:.0564359" transform="matrix(6.25095 0 0 -6.25095 256.643 235.248)"/></g><g style="stroke-width:.0564359"><path d="m0 0-.33.569-.607-.353q.006 0 .119-.017a.21.21 0 0 0 .16-.102l.751-1.294.45.261-.395.682.452.26-.15.256z" style="fill:#fff;fill-opacity:1;fill-rule:nonzero;stroke:none;stroke-width:.0564359" transform="matrix(6.25095 0 0 -6.25095 226.59 257.547)"/></g><g style="stroke-width:.0564359"><path d="m0 0 1.564.907.457-.789.45.263-.605 1.043L-.146.255Z" style="fill:#fff;fill-opacity:1;fill-rule:nonzero;stroke:none;stroke-width:.0564359" transform="matrix(6.25095 0 0 -6.25095 219.13 273.67)"/></g><g style="stroke-width:.0564359"><path d="m0 0-.57-.331-.137.233-.555-.323q.007.002.083-.015a.17.17 0 0 0 .117-.089l.039-.068-.57-.332.145-.248.503.291a.9.9 0 0 1-.115-.226.66.66 0 0 1 .044-.558.66.66 0 0 1 .46-.316.83.83 0 0 1 .591.098.82.82 0 0 1 .379.464.66.66 0 0 1-.049.556.66.66 0 0 1-.458.317.8.8 0 0 1-.251.013l.49.284zm.017-1.427q-.012-.157-.121-.22-.106-.062-.25.005a.54.54 0 0 0-.236.222.54.54 0 0 0-.077.316q.016.159.121.219.106.065.25-.004a.5.5 0 0 0 .234-.223.52.52 0 0 0 .079-.315" style="fill:#fff;fill-opacity:1;fill-rule:nonzero;stroke:none;stroke-width:.0564359" transform="matrix(6.25095 0 0 -6.25095 220.456 256.894)"/></g><g style="stroke-width:.0564359"><path d="m0 0-.018.888c-.011.533.317.94 1.005.955.6.011 1.051-.287 1.064-.914l.017-.888Zm1.677.486-.008.403c-.005.262-.172.509-.63.502-.418-.009-.681-.16-.672-.608L.374.46Z" style="fill:#fff;fill-opacity:1;fill-rule:nonzero;stroke:none;stroke-width:.0564359" transform="matrix(6.25095 0 0 -6.25095 29.216 167.946)"/></g><g style="stroke-width:.0564359"><path d="M0 0c.555-.065.787-.424.725-.971-.065-.55-.371-.84-.928-.776l-1.277.15.052.451 1.277-.15c.224-.026.454.006.494.369.038.322-.09.441-.395.477l-1.278.147.052.45z" style="fill:#fff;fill-opacity:1;fill-rule:nonzero;stroke:none;stroke-width:.0564359" transform="matrix(6.25095 0 0 -6.25095 38.586 140.165)"/></g><g style="stroke-width:.0564359"><path d="m0 0 .113.438.83-.211-.632.993.14.547.593-.982 1.431.545-.142-.551-1.054-.37.193-.316.645-.165-.113-.439Z" style="fill:#fff;fill-opacity:1;fill-rule:nonzero;stroke:none;stroke-width:.0564359" transform="matrix(6.25095 0 0 -6.25095 31.871 132.437)"/></g><g style="stroke-width:.0564359"><path d="M0 0c.257-.102.433.058.522.284.059.147.106.388-.09.467C.224.833.075.56-.111.309c-.19-.254-.413-.498-.775-.354-.391.155-.434.6-.298.946.16.399.481.698.926.521l-.163-.407c-.238.077-.36-.062-.441-.263C-.915.617-.92.44-.759.375c.15-.058.203.025.518.456.09.125.349.52.786.346.352-.14.507-.521.3-1.041C.677-.286.31-.601-.163-.407Z" style="fill:#fff;fill-opacity:1;fill-rule:nonzero;stroke:none;stroke-width:.0564359" transform="matrix(6.25095 0 0 -6.25095 45.399 117.06)"/></g><g style="stroke-width:.0564359"><path d="M0 0c.311.555.912.649 1.447.35.521-.293.754-.853.445-1.41-.313-.556-.913-.649-1.434-.358C-.077-1.117-.312-.557 0 0m1.557-.873c.199.354-.03.657-.331.827C.91.13.531.167.334-.187.135-.541.363-.846.68-1.022c.299-.167.677-.206.877.149" style="fill:#fff;fill-opacity:1;fill-rule:nonzero;stroke:none;stroke-width:.0564359" transform="matrix(6.25095 0 0 -6.25095 45.533 95.585)"/></g><g style="stroke-width:.0564359"><path d="M0 0c.386.507.994.514 1.48.141.475-.362.628-.951.24-1.456-.387-.507-.994-.516-1.469-.153C-.236-1.095-.388-.506 0 0m1.416-1.083c.248.322.064.654-.21.864C.919 0 .549.091.302-.232.056-.555.238-.888.527-1.108c.273-.209.643-.299.889.025" style="fill:#fff;fill-opacity:1;fill-rule:nonzero;stroke:none;stroke-width:.0564359" transform="matrix(6.25095 0 0 -6.25095 55.764 80.042)"/></g><g style="stroke-width:.0564359"><path d="m0 0 .342.297.518-.601.631.546-.519.6.343.297L2.668-.427l-.343-.296-.583.676-.631-.546.585-.674-.342-.296Z" style="fill:#fff;fill-opacity:1;fill-rule:nonzero;stroke:none;stroke-width:.0564359" transform="matrix(6.25095 0 0 -6.25095 70.439 64.11)"/></g><g style="stroke-width:.0564359"><path d="m0 0 .371.258 1.187-1.693-.37-.259Z" style="fill:#fff;fill-opacity:1;fill-rule:nonzero;stroke:none;stroke-width:.0564359" transform="matrix(6.25095 0 0 -6.25095 84.052 53.036)"/></g><g style="stroke-width:.0564359"><path d="M0 0a.7.7 0 0 0-.356-.522c-.557-.31-1.116-.074-1.407.449-.298.536-.202 1.136.354 1.445.37.205.843.17 1.114-.217l-.377-.21a.426.426 0 0 1-.551.094c-.354-.196-.32-.577-.144-.893.168-.301.469-.532.826-.333.256.143.328.364.211.626L-.728.22l-.164.296.755.419.544-.978-.254-.14Z" style="fill:#fff;fill-opacity:1;fill-rule:nonzero;stroke:none;stroke-width:.0564359" transform="matrix(6.25095 0 0 -6.25095 105.65 53.177)"/></g><g style="stroke-width:.0564359"><path d="m0 0 .425.162.283-.74.778.301L1.2.462l.422.165.746-1.93-.423-.165-.321.835-.776-.302.321-.832-.423-.163Z" style="fill:#fff;fill-opacity:1;fill-rule:nonzero;stroke:none;stroke-width:.0564359" transform="matrix(6.25095 0 0 -6.25095 108.103 39.258)"/></g><g style="stroke-width:.0564359"><path d="M0 0c.064-.268.298-.321.532-.265.155.038.379.141.329.346C.809.299.5.261.187.269c-.319.006-.645.048-.738.425-.099.411.239.703.602.79.417.104.845.013.957-.451L.583.931c-.072.236-.258.257-.468.206-.141-.034-.289-.133-.248-.302C-.095.681.006.684.539.676c.153-.001.625.015.735-.44C1.365-.133 1.143-.479.6-.61c-.444-.109-.912.008-1.026.506Z" style="fill:#fff;fill-opacity:1;fill-rule:nonzero;stroke:none;stroke-width:.0564359" transform="matrix(6.25095 0 0 -6.25095 135.897 41.255)"/></g><g style="stroke-width:.0564359"><path d="M0 0c-.052.201-.264.336-.487.312-.404-.045-.518-.408-.479-.768.038-.343.229-.672.632-.627.274.03.409.237.414.512l.436.048c.01-.518-.307-.884-.808-.941-.634-.067-1.058.366-1.124.959-.066.61.255 1.126.889 1.195.448.05.856-.172.962-.642z" style="fill:#fff;fill-opacity:1;fill-rule:nonzero;stroke:none;stroke-width:.0564359" transform="matrix(6.25095 0 0 -6.25095 154.845 33.075)"/></g><g style="stroke-width:.0564359"><path d="m0 0 .451-.012-.02-.793.832-.021.021.792.452-.011-.052-2.068-.454.012.024.892-.833.022-.024-.892-.453.012Z" style="fill:#fff;fill-opacity:1;fill-rule:nonzero;stroke:none;stroke-width:.0564359" transform="matrix(6.25095 0 0 -6.25095 163.202 28.405)"/></g><g style="stroke-width:.0564359"><path d="M0 0c.628-.105.919-.639.82-1.243-.099-.589-.547-1-1.176-.896-.628.106-.92.639-.822 1.227C-1.077-.307-.629.104 0 0m-.293-1.761c.401-.066.609.251.666.591.06.358-.035.726-.436.793-.403.065-.609-.252-.667-.609-.057-.34.037-.708.437-.775" style="fill:#fff;fill-opacity:1;fill-rule:nonzero;stroke:none;stroke-width:.0564359" transform="matrix(6.25095 0 0 -6.25095 184.44 29.98)"/></g><g style="stroke-width:.0564359"><path d="M0 0c.607-.191.821-.761.636-1.346-.182-.569-.682-.912-1.29-.718-.607.191-.82.761-.64 1.329C-1.109-.148-.607.192 0 0m-.539-1.702c.388-.122.64.164.743.492.108.347.069.724-.318.846-.388.123-.639-.163-.749-.507-.104-.329-.064-.707.324-.831" style="fill:#fff;fill-opacity:1;fill-rule:nonzero;stroke:none;stroke-width:.0564359" transform="matrix(6.25095 0 0 -6.25095 200.17 34.332)"/></g><g style="stroke-width:.0564359"><path d="m0 0 .412-.191L-.3-1.719l.909-.424-.162-.346-1.321.615Z" style="fill:#fff;fill-opacity:1;fill-rule:nonzero;stroke:none;stroke-width:.0564359" transform="matrix(6.25095 0 0 -6.25095 209.626 38.978)"/></g><g style="stroke-width:.0564359"><path d="M0 0c-.161-.222-.05-.436.146-.577.128-.092.351-.196.476-.026.131.181-.099.393-.296.635C.127.278-.056.554.172.87c.247.341.689.274.99.056.349-.251.561-.635.279-1.023l-.354.256c.133.211.028.365-.148.492C.822.735.651.784.55.644.456.513.523.44.865.029c.1-.117.418-.465.142-.844-.221-.309-.629-.366-1.082-.039-.369.267-.584.701-.279 1.111z" style="fill:#fff;fill-opacity:1;fill-rule:nonzero;stroke:none;stroke-width:.0564359" transform="matrix(6.25095 0 0 -6.25095 229.545 58.494)"/></g><g style="stroke-width:.0564359"><path d="m0 0 .341-.3-1.368-1.552-.339.3z" style="fill:#fff;fill-opacity:1;fill-rule:nonzero;stroke:none;stroke-width:.0564359" transform="matrix(6.25095 0 0 -6.25095 245.582 60.008)"/></g><g style="stroke-width:.0564359"><path d="m0 0 .306-.331-.439-1.573.004-.004 1.021.941.289-.312-1.523-1.402-.306.332.437 1.571-.004.003-1.018-.939-.288.312z" style="fill:#fff;fill-opacity:1;fill-rule:nonzero;stroke:none;stroke-width:.0564359" transform="matrix(6.25095 0 0 -6.25095 252.645 66.418)"/></g><g style="stroke-width:.0564359"><path d="M0 0c.152.142.169.391.039.576-.231.333-.604.26-.901.053-.283-.197-.481-.522-.248-.856.157-.226.404-.246.647-.118l.25-.359c-.449-.258-.922-.156-1.211.259C-1.789.078-1.61.659-1.121 1c.503.351 1.109.316 1.475-.205C.611.423.611-.041.25-.359Z" style="fill:#fff;fill-opacity:1;fill-rule:nonzero;stroke:none;stroke-width:.0564359" transform="matrix(6.25095 0 0 -6.25095 265.75 89.394)"/></g><g style="stroke-width:.0564359"><path d="m0 0 .709-1.367-.342-.176-.499.965-.393-.203.459-.886-.313-.162-.46.885-.45-.233.511-.987-.34-.176-.718 1.389z" style="fill:#fff;fill-opacity:1;fill-rule:nonzero;stroke:none;stroke-width:.0564359" transform="matrix(6.25095 0 0 -6.25095 274.175 94.773)"/></g><g style="stroke-width:.0564359"><path d="m0 0-.117.395 1.259.376-.145.486.295.09c.077-.276.248-.499.558-.451l.092-.312Z" style="fill:#fff;fill-opacity:1;fill-rule:nonzero;stroke:none;stroke-width:.0564359" transform="matrix(6.25095 0 0 -6.25095 273.522 126.827)"/></g><g style="stroke-width:.0564359"><path d="M0 0c-.129-.049-.225-.172-.198-.312.053-.292.452-.295.676-.267l.005.007a.52.52 0 0 0-.305.407.64.64 0 0 0 .121.494c.104.127.26.205.417.235.405.074.78-.147.857-.56.111-.603-.387-.86-.891-.953-.488-.09-1.082.025-1.186.587-.063.343.092.636.434.746zm.929-.458c.186.033.349.187.311.388-.034.194-.239.269-.419.236C.633.132.463 0 .5-.205c.041-.217.233-.29.429-.253" style="fill:#fff;fill-opacity:1;fill-rule:nonzero;stroke:none;stroke-width:.0564359" transform="matrix(6.25095 0 0 -6.25095 278.796 134.824)"/></g><g style="stroke-width:.0564359"><path d="m0 0-.029.407 1.312.095-.037.506.309.024c.014-.285.132-.54.444-.561l.023-.325Z" style="fill:#fff;fill-opacity:1;fill-rule:nonzero;stroke:none;stroke-width:.0564359" transform="matrix(6.25095 0 0 -6.25095 277.728 152.16)"/></g><g style="stroke-width:.0564359"><path d="M0 0c-.015-.404-.282-.734-1.073-.706-.808.03-1.049.378-1.034.781.013.399.281.729 1.088.7C-.229.746.014.396 0 0m-1.77.062c-.012-.333.484-.35.712-.36.212-.006.706-.023.719.311.012.328-.483.344-.695.352-.228.009-.723.027-.736-.303" style="fill:#fff;fill-opacity:1;fill-rule:nonzero;stroke:none;stroke-width:.0564359" transform="matrix(6.25095 0 0 -6.25095 290.736 163.423)"/></g><g style="fill:#252f81;stroke-width:.0564359"><path d="M0 0c-.239 3.269-1.732 6.088-3.927 8.124.497-1.178 1.272-4.829-1.133-8.22a8.9 8.9 0 0 0-3.187-2.772c-.731-.378-.639-.812-.639-1.662 1.327.512 2.605 1.273 3.756 2.496C-2.903.327-2.563 2.958-2.563 2.958a9.67 9.67 0 0 0-2.149-6.269 10.1 10.1 0 0 0-3.52-2.777c-.706-.339-.654-.834-.654-1.735 1.73.583 3.15 1.56 4.23 2.619C-2.755-3.34-1.984-1.32-1.646.35c-.032-.413.107-3.9-2.942-7.189-2.518-2.715-5.743-3.168-5.743-3.168v6.49c0 1.427.807 1.631.807 1.688 0 .053-2.691 1.969-2.891 2.109l-.006-.004c-.199-.141-2.883-2.052-2.883-2.105 0-.057.807-.261.807-1.688v-6.49s-3.225.453-5.743 3.168C-23.29-3.55-23.15-.063-23.183.35c.339-1.67 1.111-3.69 3.01-5.554a11.16 11.16 0 0 1 4.232-2.619c0 .901.056 1.396-.656 1.735a10 10 0 0 0-3.519 2.777 9.65 9.65 0 0 0-2.148 6.269s.338-2.631 2.566-4.992c1.151-1.223 2.427-1.984 3.757-2.496 0 .85.056 1.295-.639 1.662a9.06 9.06 0 0 0-3.19 2.772c-2.405 3.391-1.628 7.042-1.132 8.22-2.194-2.036-3.687-4.855-3.927-8.124-.511-6.945 4.982-13.424 12.414-13.424h.001C-4.982-13.424.513-6.945 0 0" style="fill:#252f81;fill-opacity:1;fill-rule:nonzero;stroke:none;stroke-width:.0564359" transform="matrix(6.25095 0 0 -6.25095 237.054 174.32)"/></g><g style="fill:#252f81;stroke-width:.0564359"><path d="M0 0h-5.352v1.344h-3.09V0h-5.363v-1.891H0Z" style="fill:#252f81;fill-opacity:1;fill-rule:nonzero;stroke:none;stroke-width:.0564359" transform="matrix(6.25095 0 0 -6.25095 202.607 69.079)"/></g><path d="M49.091 102.4h40.57V84.539h-40.57Zm32.073-6.463h-23.55v-4.914h23.55z" style="fill:#252f81;fill-opacity:1;fill-rule:nonzero;stroke:none;stroke-width:.208677" transform="matrix(1.69055 0 0 1.69055 42.17 -56.657)"/><g style="fill:#252f81;stroke-width:.0564359"><path d="M0 0v7.262h-14.866V0h2.298v5.359h10.269V0Z" style="fill:#252f81;fill-opacity:1;fill-rule:nonzero;stroke:none;stroke-width:.0564359" transform="matrix(6.25095 0 0 -6.25095 205.92 167.202)"/></g><path d="M53.913 132.422h30.92V115.76h-30.92Zm23.021-6.704H61.822v-3.176h15.112z" style="fill:#252f81;fill-opacity:1;fill-rule:nonzero;stroke:none;stroke-width:.208677" transform="matrix(1.69055 0 0 1.69055 42.17 -56.657)"/></g></svg>